<svg width="117" height="33" viewBox="0 0 117 33" fill="none" xmlns="http://www.w3.org/2000/svg">
<path d="M39.4993 9.71267C39.2073 9.70194 38.9242 9.82002 38.7317 10.0347C38.5393 10.258 38.4375 10.5414 38.4486 10.8334V17.4783C38.4817 18.5711 37.8734 19.5887 36.878 20.1018C36.4135 20.3466 35.8936 20.4733 35.365 20.469C34.3319 20.4668 33.3785 19.9322 32.8587 19.0649C32.5778 18.5818 32.4362 18.0322 32.4517 17.4761V10.8312C32.4583 10.5285 32.33 10.2387 32.1022 10.0326C31.8942 9.82861 31.6133 9.71267 31.3169 9.71052C30.9939 9.69979 30.6798 9.81572 30.4476 10.0326C30.2241 10.2408 30.1003 10.5307 30.1069 10.8312V17.4761C30.087 18.4165 30.3193 19.3461 30.7794 20.1748C31.2085 20.9413 31.85 21.5768 32.6309 22.0105C33.4648 22.4635 34.4093 22.6911 35.3627 22.6718C36.3161 22.6911 37.2563 22.4635 38.0858 22.0105C38.8622 21.5747 39.4971 20.9392 39.9262 20.1748C40.3841 19.3461 40.6164 18.4165 40.5987 17.4761V10.8312C40.6075 10.5371 40.4969 10.2516 40.2912 10.0326C40.0877 9.81787 39.7979 9.69979 39.4971 9.71052L39.4993 9.71267Z" fill="#262D34"/>
<path d="M49.4637 20.035C49.2429 20.0204 49.0221 20.0766 48.841 20.1952C48.6931 20.3076 48.5363 20.4096 48.3685 20.499C48.1897 20.5781 47.9976 20.6322 47.8011 20.6593C47.5317 20.6988 47.2601 20.7155 46.9885 20.7134C46.4586 20.7217 45.9375 20.5864 45.4893 20.3222C45.0543 20.062 44.7032 19.6958 44.4692 19.2629C44.2175 18.7905 44.0916 18.2682 44.1026 17.7417C44.0916 17.209 44.213 16.6825 44.4603 16.2038C44.69 15.7668 45.0477 15.4006 45.4893 15.1446C45.9839 14.872 46.5491 14.7367 47.1232 14.7534C47.3175 14.7596 47.5096 14.7804 47.6995 14.8158C47.9004 14.8408 48.0947 14.899 48.2758 14.9864C48.4039 15.0509 48.5231 15.1279 48.6335 15.2174C48.7395 15.3028 48.8587 15.3714 48.9868 15.4193C49.1458 15.4776 49.3158 15.5046 49.4858 15.5004C49.7485 15.5129 50.0003 15.3943 50.146 15.1883C50.2895 14.9927 50.3646 14.7617 50.3624 14.5224C50.3624 14.1707 50.2012 13.8356 49.9186 13.6067C49.5586 13.3195 49.1347 13.1156 48.6776 13.0116C48.0638 12.8596 47.4323 12.7889 46.7986 12.7972C45.8956 12.7806 45.0035 12.9991 44.2219 13.4298C43.4778 13.846 42.8684 14.4495 42.4665 15.1716C42.0315 15.9645 41.8129 16.8489 41.835 17.7417C41.8218 18.6095 42.0249 19.4689 42.429 20.2514C42.8043 20.9777 43.3872 21.5916 44.1137 22.0223C44.8909 22.4677 45.7896 22.6924 46.6993 22.6716C47.3263 22.6758 47.9534 22.6009 48.5584 22.449C49.0552 22.3345 49.5255 22.1347 49.9473 21.8642C50.2983 21.6207 50.475 21.3502 50.475 21.0526C50.4838 20.7904 50.3889 20.5323 50.21 20.3305C50.0223 20.1286 49.7463 20.0204 49.4615 20.035H49.4637Z" fill="#262D34"/>
<path d="M59.2795 12.7991C58.9939 12.7908 58.7165 12.9052 58.5179 13.1111C58.3171 13.317 58.2095 13.5957 58.2178 13.8848V13.9098C58.1122 13.812 58.0004 13.7143 57.8721 13.6207C57.5348 13.3711 57.1622 13.1735 56.767 13.0341C56.3178 12.876 55.846 12.7991 55.37 12.8032C54.6063 12.797 53.8571 13.0175 53.2175 13.4356C52.5573 13.8682 52.0234 14.4693 51.6674 15.1765C51.2721 15.9731 51.0755 16.855 51.0941 17.7453C51.0775 18.6292 51.2742 19.507 51.6674 20.2974C52.0234 21.0087 52.5656 21.6119 53.2341 22.0404C53.8943 22.4626 54.6621 22.681 55.4445 22.6727C55.8708 22.6769 56.293 22.5999 56.6924 22.4502C57.0505 22.317 57.3878 22.134 57.6962 21.9073C57.8887 21.7658 58.0667 21.6036 58.2281 21.4268C58.224 21.7097 58.3316 21.9822 58.5261 22.1839C58.9504 22.5978 59.6251 22.5978 60.0494 22.1839C60.2501 21.978 60.3578 21.6972 60.3515 21.4102V13.8827C60.3619 13.5916 60.2543 13.3087 60.0494 13.1007C59.8466 12.8968 59.5672 12.7866 59.2795 12.797V12.7991ZM57.9777 19.2553C57.7749 19.688 57.4603 20.0561 57.067 20.3223C56.6614 20.5865 56.1875 20.7238 55.7032 20.7134C55.2271 20.7217 54.7573 20.5865 54.3579 20.3223C53.9647 20.0561 53.6501 19.688 53.4473 19.2553C53.0106 18.2881 53.0106 17.1795 53.4473 16.2144C53.6501 15.7818 53.9647 15.4136 54.3579 15.1474C54.7573 14.8832 55.2251 14.748 55.7032 14.7563C56.1854 14.7459 56.6614 14.8811 57.067 15.1474C57.4603 15.4136 57.7769 15.7818 57.9777 16.2144C58.4144 17.1816 58.4144 18.2902 57.9777 19.2553Z" fill="#262D34"/>
<path d="M70.3926 9.09527C70.107 9.0868 69.8297 9.20113 69.6331 9.41285C69.4323 9.62244 69.3247 9.90614 69.3309 10.2004V13.7572C69.2212 13.6535 69.1053 13.5561 68.9874 13.463C68.65 13.2089 68.2775 13.0078 67.8822 12.8659C67.4331 12.705 66.9612 12.6267 66.4852 12.6309C65.7194 12.6225 64.9681 12.8469 64.3266 13.2745C63.6663 13.7149 63.1324 14.3268 62.7785 15.0466C62.3832 15.8575 62.1866 16.7551 62.2052 17.6613C62.1886 18.5611 62.3852 19.4545 62.7785 20.259C63.1365 20.9831 63.6767 21.5928 64.3452 22.029C65.0054 22.4588 65.7732 22.6811 66.5555 22.6726C66.9819 22.6768 67.4041 22.5985 67.8035 22.4461C68.1616 22.3106 68.501 22.1264 68.8073 21.8935C68.9998 21.7495 69.1778 21.5844 69.3392 21.4044C69.3351 21.6923 69.4427 21.9697 69.6393 22.1751C70.0636 22.5964 70.7383 22.5964 71.1625 22.1751C71.3612 21.9633 71.4709 21.6796 71.4626 21.3875V10.1983C71.473 9.90191 71.3654 9.61398 71.1625 9.40226C70.9597 9.19478 70.6824 9.08257 70.3947 9.09315L70.3926 9.09527ZM69.0929 19.1962C68.8901 19.6366 68.5755 20.0113 68.1823 20.2823C67.7766 20.5512 67.3027 20.6909 66.8184 20.6803C66.3424 20.6888 65.8726 20.5512 65.4731 20.2823C65.0799 20.0113 64.7653 19.6366 64.5625 19.1962C64.1258 18.2117 64.1258 17.0833 64.5625 16.1009C64.7653 15.6606 65.0799 15.2858 65.4731 15.0148C65.8726 14.746 66.3403 14.6083 66.8184 14.6168C67.3006 14.6062 67.7766 14.7438 68.1823 15.0148C68.5755 15.2858 68.8922 15.6606 69.0929 16.1009C69.5296 17.0854 69.5296 18.2139 69.0929 19.1962Z" fill="#262D34"/>
<path d="M81.0973 14.1961C80.6537 13.767 80.1242 13.4212 79.5403 13.1713C78.9542 12.9213 78.316 12.7943 77.671 12.7964C76.8224 12.7964 75.9873 13.0026 75.2541 13.3983C74.4801 13.8128 73.8419 14.4127 73.4051 15.1313C72.9344 15.8853 72.6991 16.7955 72.6991 17.864C72.6855 18.7201 72.9073 19.5636 73.3463 20.3197C73.7763 21.0425 74.4213 21.6382 75.2043 22.0381C76.0778 22.4755 77.0623 22.6942 78.058 22.6713C78.6985 22.6755 79.3366 22.5776 79.9409 22.3818C80.4523 22.2339 80.9298 22.0006 81.353 21.6965C81.7129 21.4362 81.8939 21.1446 81.8939 20.83C81.8894 20.3343 81.4526 19.9365 80.914 19.9386H80.9072C80.6764 19.9448 80.4523 19.999 80.2509 20.0989C80.1083 20.1718 79.9522 20.2572 79.7802 20.3572C79.5652 20.4739 79.3344 20.5614 79.0922 20.6155C78.7188 20.6947 78.3341 20.7321 77.9494 20.7217C76.5101 20.728 75.2722 19.7823 75.0142 18.4785H81.3938C81.6902 18.4826 81.9799 18.3868 82.2062 18.2119C82.4348 18.0411 82.5683 17.7869 82.5751 17.5183C82.5773 16.8934 82.4438 16.2769 82.179 15.702C81.9211 15.1438 81.5544 14.6335 81.0973 14.1961ZM75.7203 15.3791C75.9624 15.1563 76.2611 14.9896 76.5893 14.898C76.94 14.8001 77.3044 14.7522 77.671 14.7543C78.0648 14.7543 78.4518 14.8355 78.8048 14.9938C79.1488 15.1479 79.4543 15.3687 79.6942 15.6437C79.9318 15.9082 80.0699 16.2352 80.0925 16.5768V16.7018H75.021C75.0481 16.5622 75.0866 16.4268 75.1364 16.2914C75.2518 15.9498 75.4532 15.6395 75.7225 15.3812L75.7203 15.3791Z" fill="#262D34"/>
<path d="M96.8314 13.3577C96.383 12.985 95.7315 12.7987 94.8704 12.7966C94.3759 12.7902 93.8856 12.9046 93.4457 13.1311C93.0413 13.3386 92.6747 13.6139 92.3625 13.9464C92.1173 14.2005 91.9057 14.4821 91.7297 14.7891C91.5789 14.3021 91.317 13.8595 90.965 13.4953C90.5125 13.0295 89.8064 12.7966 88.851 12.7987C88.4781 12.7945 88.1094 12.8601 87.7595 12.9871C87.4326 13.11 87.1267 13.2772 86.846 13.4869C86.5841 13.6753 86.3473 13.8955 86.142 14.1454C86.0771 14.2237 86.0163 14.3021 85.9618 14.3804V14.0861C85.9702 13.7918 85.8613 13.508 85.658 13.2984C85.2306 12.8749 84.5455 12.8749 84.116 13.2984C83.9128 13.508 83.8038 13.7939 83.8101 14.0861V21.5629C83.8018 21.8572 83.9128 22.1409 84.116 22.3506C84.5455 22.7719 85.2285 22.7719 85.658 22.3506C85.8592 22.1388 85.9702 21.8551 85.9618 21.5629V16.9341C85.9577 16.5614 86.0394 16.1909 86.2049 15.8563C86.3683 15.5345 86.6197 15.2677 86.9319 15.0877C87.286 14.8844 87.6882 14.7828 88.0947 14.7933C88.5619 14.7933 88.9181 14.8886 89.1695 15.0877C89.4209 15.2804 89.6032 15.5493 89.6891 15.8563C89.7896 16.2057 89.8378 16.5699 89.8336 16.9341V21.5692C89.8253 21.8635 89.9363 22.1473 90.1395 22.3569C90.569 22.7783 91.25 22.7783 91.6795 22.3569C91.8827 22.1473 91.9916 21.8614 91.9854 21.5692V16.9341C91.9812 16.5614 92.0629 16.1909 92.2284 15.8563C92.3918 15.5345 92.6432 15.2677 92.9554 15.0877C93.3095 14.8844 93.7117 14.7828 94.1182 14.7933C94.5833 14.7933 94.9416 14.8886 95.193 15.0877C95.4423 15.2804 95.6246 15.5514 95.7105 15.8563C95.8111 16.2057 95.8593 16.5699 95.8551 16.9341V21.5692C95.8467 21.8635 95.9577 22.1473 96.161 22.3569C96.5905 22.7783 97.2714 22.7783 97.7009 22.3569C97.9041 22.1473 98.0131 21.8614 98.0068 21.5692V16.9341C98.0152 16.2353 97.9292 15.5387 97.7554 14.8611C97.615 14.2746 97.2923 13.7494 96.8377 13.3598L96.8314 13.3577Z" fill="#262D34"/>
<path d="M108.185 13.1205C107.734 12.6883 107.011 12.6883 106.557 13.1205C106.343 13.3345 106.228 13.6263 106.234 13.9246V18.6558C106.247 19.0687 106.163 19.4793 105.989 19.8554C105.838 20.1667 105.595 20.426 105.29 20.5946C104.947 20.7697 104.562 20.8561 104.172 20.8432C103.529 20.8432 103.029 20.6789 102.67 20.3525C102.312 20.0262 102.13 19.462 102.13 18.6623V13.9246C102.139 13.6241 102.022 13.3345 101.807 13.1205C101.356 12.6883 100.633 12.6883 100.181 13.1205C99.9669 13.3345 99.8519 13.6263 99.8585 13.9246V19.3194C99.8475 19.9548 99.989 20.586 100.277 21.1587C100.535 21.6753 100.938 22.1119 101.438 22.4145C101.967 22.7236 102.573 22.8792 103.188 22.8641C103.699 22.8706 104.21 22.8036 104.701 22.6609C105.119 22.5377 105.509 22.3345 105.845 22.0622C105.993 21.939 106.13 21.8007 106.252 21.6515V21.8504C106.252 22.4793 106.155 22.9743 105.958 23.3374C105.774 23.6897 105.464 23.9664 105.088 24.1134C104.626 24.2798 104.135 24.3598 103.641 24.3446C103.254 24.3511 102.869 24.2863 102.507 24.1523C102.179 24.0226 101.914 23.9275 101.712 23.8648C101.454 23.7654 101.164 23.7827 100.918 23.9102C100.642 24.0701 100.443 24.3338 100.37 24.6407C100.279 24.8958 100.312 25.1768 100.456 25.408C100.646 25.6847 100.92 25.8943 101.239 26.0067C101.597 26.1472 101.973 26.2402 102.356 26.2834C102.783 26.3439 103.212 26.3742 103.644 26.3763C104.484 26.385 105.318 26.2337 106.097 25.9268C106.823 25.635 107.435 25.127 107.847 24.4765C108.28 23.8043 108.497 22.9008 108.499 21.7682V13.9246C108.508 13.6263 108.395 13.3367 108.183 13.1205H108.185Z" fill="#262D34"/>
<path d="M10.0608 9.70986C10.9146 9.71415 11.6048 10.42 11.609 11.2932V19.5081C11.609 19.7205 11.6237 19.935 11.651 20.1453C11.7558 21.1644 12.0453 22.1577 12.5006 23.0717C12.9768 24.0264 13.6334 24.8781 14.4327 25.5711C15.2068 26.2405 16.1026 26.7447 17.0676 27.0579C17.4934 27.1973 17.9319 27.296 18.3766 27.3561C14.1432 28.4653 9.83422 25.8543 8.74964 21.5269C8.58182 20.8661 8.5 20.1882 8.5 19.5081V11.2932C8.5042 10.4157 9.20278 9.70557 10.0608 9.70986Z" fill="#0ABB87"/>
<path d="M15.1996 24.8262C15.0088 24.5849 14.8309 24.3303 14.6722 24.0649C15.3411 24.3347 16.0593 24.451 16.7775 24.4049C19.3865 24.2404 21.3846 21.9389 21.3846 19.2644V7.08328C21.3717 6.19251 22.0449 5.44655 22.9153 5.38951C23.7921 5.36318 24.5231 6.06965 24.5489 6.967C24.5489 6.98235 24.5489 6.99771 24.5489 7.01307V19.4004C24.551 21.0723 24.0558 22.7046 23.1275 24.0802C21.4939 26.498 18.2546 27.1036 15.8899 25.4317C15.7763 25.3528 15.667 25.2672 15.5598 25.1794C15.429 25.0741 15.3068 24.9556 15.1975 24.8284L15.1996 24.8262Z" fill="#0ABB87"/>
<path d="M16.8352 20.2037C18.3693 20.2037 19.613 18.9601 19.613 17.4259C19.613 15.8918 18.3693 14.6481 16.8352 14.6481C15.301 14.6481 14.0574 15.8918 14.0574 17.4259C14.0574 18.9601 15.301 20.2037 16.8352 20.2037Z" fill="#0ABB87"/>
</svg>
